solid OpenSCAD_Model
  facet normal -1 0 0
    outer loop
      vertex 0 0 0
      vertex 0 0 5
      vertex 0 20 0
    endloop
  endfacet
  facet normal -1 0 0
    outer loop
      vertex 0 20 0
      vertex 0 0 5
      vertex 0 20 5
    endloop
  endfacet
  facet normal 0 -1 0
    outer loop
      vertex 0 0 5
      vertex 0 0 0
      vertex 20 0 0
    endloop
  endfacet
  facet normal 0 -1 0
    outer loop
      vertex 20 0 5
      vertex 0 0 5
      vertex 20 0 0
    endloop
  endfacet
  facet normal 0 0 -1
    outer loop
      vertex 0 0 0
      vertex 0 20 0
      vertex 5.85786 14.1421 0
    endloop
  endfacet
  facet normal 0 0 -1
    outer loop
      vertex 0 0 0
      vertex 5.85786 14.1421 0
      vertex 20 0 0
    endloop
  endfacet
  facet normal 0 0 -1
    outer loop
      vertex 5.85786 14.1421 0
      vertex 0 20 0
      vertex 11.7157 20 0
    endloop
  endfacet
  facet normal 0 1 0
    outer loop
      vertex 0 20 0
      vertex 0 20 5
      vertex 11.7157 20 0
    endloop
  endfacet
  facet normal 0 1 0
    outer loop
      vertex 11.7157 20 0
      vertex 0 20 5
      vertex 11.7157 20 5
    endloop
  endfacet
  facet normal 0 0 1
    outer loop
      vertex 5.85786 14.1421 5
      vertex 0 0 5
      vertex 20 0 5
    endloop
  endfacet
  facet normal 0 0 1
    outer loop
      vertex 0 20 5
      vertex 0 0 5
      vertex 5.85786 14.1421 5
    endloop
  endfacet
  facet normal 0 0 1
    outer loop
      vertex 5.85786 14.1421 5
      vertex 11.7157 20 5
      vertex 0 20 5
    endloop
  endfacet
  facet normal 0.707107 0.707107 0
    outer loop
      vertex 20 0 5
      vertex 20 0 0
      vertex 5.85786 14.1421 5
    endloop
  endfacet
  facet normal 0.707107 0.707107 0
    outer loop
      vertex 5.85786 14.1421 5
      vertex 20 0 0
      vertex 5.85786 14.1421 0
    endloop
  endfacet
  facet normal 0.707107 -0.707107 0
    outer loop
      vertex 11.7157 20 0
      vertex 11.7157 20 5
      vertex 5.85786 14.1421 5
    endloop
  endfacet
  facet normal 0.707107 -0.707107 0
    outer loop
      vertex 5.85786 14.1421 0
      vertex 11.7157 20 0
      vertex 5.85786 14.1421 5
    endloop
  endfacet
endsolid OpenSCAD_Model
