solid OpenSCAD_Model
  facet normal -0.707107 -0.707107 0
    outer loop
      vertex 20 0 0
      vertex 20 0 5
      vertex 5.85786 14.1421 5
    endloop
  endfacet
  facet normal -0.707107 -0.707107 0
    outer loop
      vertex 5.85786 14.1421 0
      vertex 20 0 0
      vertex 5.85786 14.1421 5
    endloop
  endfacet
  facet normal 0 0 1
    outer loop
      vertex 20 0 5
      vertex 34.1421 14.1421 5
      vertex 20 28.2843 5
    endloop
  endfacet
  facet normal 0 0 1
    outer loop
      vertex 5.85786 14.1421 5
      vertex 20 0 5
      vertex 20 28.2843 5
    endloop
  endfacet
  facet normal 0.707107 -0.707107 0
    outer loop
      vertex 20 0 0
      vertex 34.1421 14.1421 0
      vertex 34.1421 14.1421 5
    endloop
  endfacet
  facet normal 0.707107 -0.707107 0
    outer loop
      vertex 20 0 5
      vertex 20 0 0
      vertex 34.1421 14.1421 5
    endloop
  endfacet
  facet normal 0 0 -1
    outer loop
      vertex 5.85786 14.1421 0
      vertex 20 28.2843 0
      vertex 20 0 0
    endloop
  endfacet
  facet normal 0 0 -1
    outer loop
      vertex 20 0 0
      vertex 20 28.2843 0
      vertex 34.1421 14.1421 0
    endloop
  endfacet
  facet normal -0.707107 0.707107 0
    outer loop
      vertex 5.85786 14.1421 5
      vertex 20 28.2843 5
      vertex 5.85786 14.1421 0
    endloop
  endfacet
  facet normal -0.707107 0.707107 0
    outer loop
      vertex 5.85786 14.1421 0
      vertex 20 28.2843 5
      vertex 20 28.2843 0
    endloop
  endfacet
  facet normal 0.707107 0.707107 0
    outer loop
      vertex 20 28.2843 0
      vertex 20 28.2843 5
      vertex 34.1421 14.1421 0
    endloop
  endfacet
  facet normal 0.707107 0.707107 0
    outer loop
      vertex 34.1421 14.1421 0
      vertex 20 28.2843 5
      vertex 34.1421 14.1421 5
    endloop
  endfacet
endsolid OpenSCAD_Model
